<svg xmlns="http://www.w3.org/2000/svg" xmlns:xlink="http://www.w3.org/1999/xlink" width="500" zoomAndPan="magnify" viewBox="0 0 375 374.999991" height="500" preserveAspectRatio="xMidYMid meet" version="1.2"><defs><clipPath id="dc1ead5f0e"><path d="M 111.113281 127.300781 L 120.871094 127.300781 L 120.871094 246.9375 L 111.113281 246.9375 Z M 111.113281 127.300781 "/></clipPath></defs><g id="1d2242b349"><rect x="0" width="375" y="0" height="374.999991" style="fill:#ffffff;fill-opacity:1;stroke:none;"/><rect x="0" width="375" y="0" height="374.999991" style="fill:#ffffff;fill-opacity:1;stroke:none;"/><g style="fill:#1f2122;fill-opacity:1;"><g transform="translate(93.829026, 276.890617)"><path style="stroke:none" d="M 5.265625 -175.34375 L 33.484375 -175.34375 L 100.828125 -34.015625 L 153.421875 -175.34375 L 184.28125 -175.34375 L 184.28125 -173.59375 C 179.257812 -173.59375 175.609375 -172.070312 173.328125 -169.03125 C 171.046875 -165.988281 169.613281 -161.046875 169.03125 -154.203125 C 168.445312 -147.367188 168.15625 -138.164062 168.15625 -126.59375 L 168.15625 -48.75 C 168.15625 -37.289062 168.445312 -28.113281 169.03125 -21.21875 C 169.613281 -14.320312 171.046875 -9.351562 173.328125 -6.3125 C 175.609375 -3.269531 179.257812 -1.75 184.28125 -1.75 L 184.28125 0 L 136.9375 0 L 136.9375 -1.75 C 141.96875 -1.75 145.625 -3.269531 147.90625 -6.3125 C 150.1875 -9.351562 151.617188 -14.320312 152.203125 -21.21875 C 152.785156 -28.113281 153.078125 -37.289062 153.078125 -48.75 L 153.078125 -169.5625 C 146.765625 -152.726562 140.507812 -135.953125 134.3125 -119.234375 C 128.113281 -102.515625 121.800781 -85.414062 115.375 -67.9375 C 108.945312 -50.46875 102.109375 -32.085938 94.859375 -12.796875 L 93.28125 -12.796875 C 87.789062 -24.609375 82.675781 -35.566406 77.9375 -45.671875 C 73.207031 -55.785156 68.707031 -65.457031 64.4375 -74.6875 C 60.164062 -83.925781 55.867188 -93.132812 51.546875 -102.3125 C 47.222656 -111.488281 42.78125 -121.015625 38.21875 -130.890625 C 33.664062 -140.765625 28.703125 -151.429688 23.328125 -162.890625 L 23.140625 -87.671875 L 23.140625 -65.40625 C 23.140625 -52.664062 23.957031 -42.144531 25.59375 -33.84375 C 27.238281 -25.539062 29.460938 -19.050781 32.265625 -14.375 C 35.066406 -9.695312 38.21875 -6.421875 41.71875 -4.546875 C 45.226562 -2.679688 48.859375 -1.75 52.609375 -1.75 L 52.609375 0 L 5.265625 0 L 5.265625 -1.75 C 10.285156 -1.75 13.9375 -3.269531 16.21875 -6.3125 C 18.5 -9.351562 19.929688 -14.320312 20.515625 -21.21875 C 21.097656 -28.113281 21.390625 -37.289062 21.390625 -48.75 L 21.390625 -126.59375 C 21.390625 -138.164062 21.097656 -147.367188 20.515625 -154.203125 C 19.929688 -161.046875 18.5 -165.988281 16.21875 -169.03125 C 13.9375 -172.070312 10.285156 -173.59375 5.265625 -173.59375 Z M 5.265625 -175.34375 "/></g></g><g clip-rule="nonzero" clip-path="url(#dc1ead5f0e)"><path style=" stroke:none;fill-rule:nonzero;fill:#ffffff;fill-opacity:1;" d="M 120.871094 127.300781 L 120.871094 246.957031 L 111.113281 246.957031 L 111.113281 127.300781 Z M 120.871094 127.300781 "/></g><g style="fill:#1f2122;fill-opacity:1;"><g transform="translate(137.165582, 268.29842)"><path style="stroke:none" d="M 0.515625 -43.5625 C 0.566406 -43.476562 0.445312 -43.457031 0.15625 -43.5 C -0.125 -43.539062 -0.414062 -43.648438 -0.71875 -43.828125 L -2.546875 -44.734375 L -4.5625 -45.984375 C -4.644531 -46.066406 -4.726562 -46.117188 -4.8125 -46.140625 C -4.90625 -46.160156 -4.953125 -46.171875 -4.953125 -46.171875 C -4.953125 -46.128906 -5.015625 -46.171875 -5.140625 -46.296875 C -5.359375 -46.515625 -6.378906 -47.234375 -8.203125 -48.453125 L -9.703125 -49.5 L -11.53125 -50.796875 L -12.703125 -51.703125 L -13.734375 -52.5625 L -14.59375 -53.203125 C -14.675781 -53.296875 -14.96875 -53.546875 -15.46875 -53.953125 C -15.96875 -54.367188 -16.238281 -54.578125 -16.28125 -54.578125 C -16.363281 -54.578125 -16.40625 -54.597656 -16.40625 -54.640625 C -16.40625 -54.679688 -16.582031 -54.832031 -16.9375 -55.09375 L -17.515625 -55.609375 L -18.625 -56.46875 L -20.90625 -58.484375 L -21.8125 -59.203125 L -22.59375 -60.046875 L -23.4375 -60.765625 C -23.789062 -61.023438 -24.148438 -61.335938 -24.515625 -61.703125 C -24.890625 -62.078125 -25.160156 -62.347656 -25.328125 -62.515625 C -25.546875 -62.734375 -25.882812 -63.054688 -26.34375 -63.484375 C -26.800781 -63.921875 -27.050781 -64.164062 -27.09375 -64.21875 L -29.046875 -66.171875 L -29.5625 -66.625 L -28.921875 -65.328125 C -28.785156 -65.054688 -28.628906 -64.835938 -28.453125 -64.671875 C -28.328125 -64.628906 -28.265625 -64.539062 -28.265625 -64.40625 C -28.265625 -64.363281 -28.125 -64.09375 -27.84375 -63.59375 C -27.5625 -63.09375 -27.332031 -62.734375 -27.15625 -62.515625 L -26.890625 -62.125 C -26.847656 -62.039062 -26.71875 -61.832031 -26.5 -61.5 C -26.289062 -61.175781 -26.117188 -60.929688 -25.984375 -60.765625 L -25.71875 -60.234375 C -25.675781 -60.191406 -25.597656 -60.09375 -25.484375 -59.9375 C -25.378906 -59.789062 -25.285156 -59.65625 -25.203125 -59.53125 C -24.984375 -59.21875 -24.875 -59.039062 -24.875 -59 C -24.875 -58.957031 -24.789062 -58.847656 -24.625 -58.671875 C -24.445312 -58.585938 -24.359375 -58.503906 -24.359375 -58.421875 L -23.4375 -56.78125 L -21.8125 -54.1875 C -21.59375 -53.832031 -21.484375 -53.59375 -21.484375 -53.46875 C -21.484375 -53.382812 -21.421875 -53.296875 -21.296875 -53.203125 C -21.160156 -53.078125 -20.929688 -52.71875 -20.609375 -52.125 C -20.285156 -51.539062 -20.015625 -51.007812 -19.796875 -50.53125 C -19.359375 -49.582031 -19.117188 -48.738281 -19.078125 -48 C -19.035156 -47.257812 -19.210938 -46.890625 -19.609375 -46.890625 C -19.734375 -46.890625 -20.097656 -47.050781 -20.703125 -47.375 C -21.316406 -47.695312 -21.816406 -48.015625 -22.203125 -48.328125 L -22.859375 -48.78125 C -22.898438 -48.78125 -23.082031 -48.890625 -23.40625 -49.109375 C -23.738281 -49.328125 -24.078125 -49.550781 -24.421875 -49.78125 C -24.765625 -50.019531 -24.960938 -50.164062 -25.015625 -50.21875 L -25.65625 -50.671875 C -25.875 -50.796875 -26.164062 -51.007812 -26.53125 -51.3125 C -26.90625 -51.625 -27.242188 -51.910156 -27.546875 -52.171875 L -29.5 -53.984375 C -29.71875 -54.203125 -29.921875 -54.382812 -30.109375 -54.53125 C -30.304688 -54.6875 -30.429688 -54.742188 -30.484375 -54.703125 C -30.523438 -54.660156 -30.546875 -54.648438 -30.546875 -54.671875 C -30.546875 -54.691406 -30.523438 -54.722656 -30.484375 -54.765625 C -30.484375 -54.859375 -30.71875 -55.097656 -31.1875 -55.484375 C -31.84375 -56.085938 -32.332031 -56.550781 -32.65625 -56.875 C -32.988281 -57.207031 -33.5 -57.742188 -34.1875 -58.484375 C -34.539062 -58.867188 -34.859375 -59.203125 -35.140625 -59.484375 C -35.421875 -59.773438 -35.5625 -59.894531 -35.5625 -59.84375 C -35.601562 -59.84375 -35.734375 -59.953125 -35.953125 -60.171875 C -36.171875 -60.390625 -36.382812 -60.628906 -36.59375 -60.890625 C -36.8125 -61.148438 -36.921875 -61.300781 -36.921875 -61.34375 C -36.921875 -61.4375 -37.222656 -61.796875 -37.828125 -62.421875 C -38.441406 -63.046875 -38.96875 -63.578125 -39.40625 -64.015625 C -39.875 -64.453125 -40.289062 -64.84375 -40.65625 -65.1875 C -41.03125 -65.539062 -41.503906 -65.976562 -42.078125 -66.5 C -42.203125 -66.625 -42.347656 -66.769531 -42.515625 -66.9375 C -42.691406 -67.113281 -42.867188 -67.25 -43.046875 -67.34375 C -43.347656 -67.5625 -43.695312 -67.90625 -44.09375 -68.375 L -46.5625 -70.71875 C -46.957031 -71.070312 -47.15625 -71.359375 -47.15625 -71.578125 C -47.15625 -72.398438 -46.695312 -72.421875 -45.78125 -71.640625 L -45.203125 -71.046875 L -44.609375 -70.53125 C -44.347656 -70.3125 -44.117188 -70.101562 -43.921875 -69.90625 C -43.734375 -69.71875 -43.53125 -69.515625 -43.3125 -69.296875 L -41.15625 -67.28125 L -39.65625 -65.90625 L -39.140625 -65.453125 L -38.484375 -64.796875 C -38.222656 -64.617188 -37.90625 -64.320312 -37.53125 -63.90625 C -37.164062 -63.5 -36.660156 -62.863281 -36.015625 -62 L -35.296875 -61.28125 L -33.546875 -59.328125 C -33.191406 -58.941406 -32.882812 -58.601562 -32.625 -58.3125 C -32.363281 -58.03125 -32.210938 -57.890625 -32.171875 -57.890625 C -32.171875 -57.890625 -32.132812 -57.867188 -32.0625 -57.828125 C -32 -57.785156 -31.925781 -57.722656 -31.84375 -57.640625 C -31.539062 -57.335938 -31.257812 -57.066406 -31 -56.828125 C -30.738281 -56.585938 -30.457031 -56.335938 -30.15625 -56.078125 L -29.3125 -55.359375 L -27.75 -53.796875 C -27.4375 -53.535156 -27.019531 -53.175781 -26.5 -52.71875 C -25.976562 -52.257812 -25.546875 -51.898438 -25.203125 -51.640625 L -24.296875 -50.921875 L -23.3125 -50.34375 C -23.09375 -50.207031 -22.851562 -50.039062 -22.59375 -49.84375 C -22.332031 -49.65625 -22.117188 -49.519531 -21.953125 -49.4375 L -21.234375 -48.90625 L -20.640625 -48.515625 C -20.515625 -48.472656 -20.394531 -48.40625 -20.28125 -48.3125 C -20.175781 -48.226562 -20.082031 -48.1875 -20 -48.1875 C -19.90625 -48.144531 -19.847656 -48.144531 -19.828125 -48.1875 C -19.804688 -48.226562 -19.816406 -48.378906 -19.859375 -48.640625 C -19.898438 -48.910156 -20.007812 -49.289062 -20.1875 -49.78125 C -20.363281 -50.28125 -20.570312 -50.769531 -20.8125 -51.25 C -21.050781 -51.726562 -21.234375 -52.007812 -21.359375 -52.09375 C -21.441406 -52.1875 -21.484375 -52.273438 -21.484375 -52.359375 C -21.484375 -52.398438 -21.546875 -52.539062 -21.671875 -52.78125 C -21.804688 -53.019531 -21.960938 -53.289062 -22.140625 -53.59375 L -22.859375 -54.828125 L -22.984375 -55.03125 C -23.335938 -55.46875 -23.46875 -55.6875 -23.375 -55.6875 L -23.578125 -56.078125 L -23.828125 -56.46875 C -23.828125 -56.507812 -23.9375 -56.703125 -24.15625 -57.046875 C -24.375 -57.398438 -24.601562 -57.769531 -24.84375 -58.15625 C -25.082031 -58.550781 -25.242188 -58.789062 -25.328125 -58.875 L -25.921875 -59.71875 C -26.003906 -59.894531 -26.117188 -60.085938 -26.265625 -60.296875 C -26.421875 -60.515625 -26.566406 -60.710938 -26.703125 -60.890625 L -27.15625 -61.609375 C -27.15625 -61.734375 -27.285156 -61.925781 -27.546875 -62.1875 C -27.847656 -62.582031 -28.128906 -63.019531 -28.390625 -63.5 L -30.40625 -67.015625 L -30.9375 -67.984375 C -30.976562 -68.117188 -31.191406 -68.445312 -31.578125 -68.96875 C -31.972656 -69.488281 -32.429688 -70.050781 -32.953125 -70.65625 C -33.472656 -71.269531 -33.925781 -71.800781 -34.3125 -72.25 C -34.707031 -72.707031 -34.925781 -72.9375 -34.96875 -72.9375 C -35.0625 -72.9375 -35.128906 -73.003906 -35.171875 -73.140625 C -35.171875 -73.179688 -35.234375 -73.285156 -35.359375 -73.453125 C -35.492188 -73.628906 -35.644531 -73.804688 -35.8125 -73.984375 C -36.425781 -74.585938 -36.625 -75.019531 -36.40625 -75.28125 C -36.320312 -75.457031 -36.191406 -75.488281 -36.015625 -75.375 C -35.835938 -75.269531 -35.535156 -74.976562 -35.109375 -74.5 L -33.671875 -72.9375 C -33.328125 -72.550781 -32.878906 -72.03125 -32.328125 -71.375 C -31.785156 -70.726562 -31.429688 -70.273438 -31.265625 -70.015625 C -31.085938 -69.753906 -30.78125 -69.394531 -30.34375 -68.9375 C -29.914062 -68.476562 -29.503906 -68.078125 -29.109375 -67.734375 C -28.671875 -67.378906 -28.453125 -67.140625 -28.453125 -67.015625 L -28.203125 -66.75 C -28.109375 -66.707031 -27.972656 -66.609375 -27.796875 -66.453125 C -27.628906 -66.304688 -27.4375 -66.125 -27.21875 -65.90625 L -26.1875 -64.796875 C -26.007812 -64.617188 -25.722656 -64.347656 -25.328125 -63.984375 C -24.941406 -63.617188 -24.3125 -63 -23.4375 -62.125 L -20.578125 -59.390625 L -20.25 -59.140625 L -12.890625 -52.953125 L -12.25 -52.359375 L -10.484375 -51.0625 L -9.578125 -50.34375 L -9.375 -50.21875 C -9.332031 -50.21875 -9.160156 -50.109375 -8.859375 -49.890625 C -8.554688 -49.671875 -8.382812 -49.519531 -8.34375 -49.4375 C -8.34375 -49.4375 -8.125 -49.269531 -7.6875 -48.9375 C -7.25 -48.613281 -6.78125 -48.265625 -6.28125 -47.890625 C -5.78125 -47.523438 -5.359375 -47.234375 -5.015625 -47.015625 L -3.78125 -46.171875 L -2.078125 -45.0625 L -0.78125 -44.34375 C 0 -43.914062 0.429688 -43.65625 0.515625 -43.5625 Z M 1.5 -7.03125 L 1.296875 -6.515625 L 0.515625 -6.578125 C -0.304688 -6.617188 -0.828125 -6.921875 -1.046875 -7.484375 C -1.128906 -7.742188 -1.109375 -7.941406 -0.984375 -8.078125 C -0.890625 -8.296875 -0.539062 -8.316406 0.0625 -8.140625 C 0.238281 -8.097656 0.335938 -8.109375 0.359375 -8.171875 C 0.378906 -8.234375 0.367188 -8.550781 0.328125 -9.125 C 0.328125 -9.769531 0.21875 -10.351562 0 -10.875 L -0.59375 -12.5 C -0.71875 -12.851562 -0.84375 -13.191406 -0.96875 -13.515625 C -1.101562 -13.835938 -1.34375 -14.429688 -1.6875 -15.296875 L -2.34375 -16.734375 L -2.9375 -17.78125 C -2.976562 -17.90625 -3.09375 -18.140625 -3.28125 -18.484375 C -3.476562 -18.835938 -3.6875 -19.1875 -3.90625 -19.53125 L -4.75 -20.90625 C -4.75 -20.988281 -4.945312 -21.3125 -5.34375 -21.875 C -5.6875 -22.351562 -5.859375 -22.660156 -5.859375 -22.796875 C -5.816406 -22.835938 -5.945312 -22.96875 -6.25 -23.1875 C -6.332031 -23.269531 -6.4375 -23.375 -6.5625 -23.5 C -6.695312 -23.632812 -6.789062 -23.722656 -6.84375 -23.765625 L -7.359375 -24.359375 C -7.578125 -24.578125 -7.6875 -24.769531 -7.6875 -24.9375 C -7.769531 -25.15625 -7.941406 -25.375 -8.203125 -25.59375 C -8.421875 -25.8125 -8.53125 -25.960938 -8.53125 -26.046875 C -8.53125 -26.222656 -8.640625 -26.375 -8.859375 -26.5 L -9.828125 -27.546875 C -10.265625 -28.066406 -10.550781 -28.328125 -10.6875 -28.328125 C -10.726562 -28.328125 -10.8125 -28.476562 -10.9375 -28.78125 C -10.976562 -28.875 -11.109375 -29.0625 -11.328125 -29.34375 C -11.546875 -29.625 -11.785156 -29.914062 -12.046875 -30.21875 C -12.609375 -30.820312 -13.070312 -31.34375 -13.4375 -31.78125 C -13.8125 -32.21875 -14.367188 -32.910156 -15.109375 -33.859375 L -16.609375 -35.5625 C -16.785156 -35.726562 -16.875 -35.835938 -16.875 -35.890625 C -16.875 -35.890625 -16.894531 -35.929688 -16.9375 -36.015625 C -16.976562 -36.097656 -17.039062 -36.1875 -17.125 -36.28125 L -18.171875 -37.578125 L -20.96875 -41.03125 C -21.1875 -41.25 -21.296875 -41.398438 -21.296875 -41.484375 C -21.296875 -41.617188 -21.445312 -41.789062 -21.75 -42 C -21.832031 -42.132812 -21.972656 -42.3125 -22.171875 -42.53125 C -22.367188 -42.75 -22.53125 -42.941406 -22.65625 -43.109375 L -23.828125 -44.484375 C -24.398438 -45.085938 -24.976562 -45.703125 -25.5625 -46.328125 C -26.144531 -46.960938 -26.4375 -47.300781 -26.4375 -47.34375 C -26.4375 -47.382812 -26.878906 -47.882812 -27.765625 -48.84375 C -28.660156 -49.800781 -29.867188 -51.082031 -31.390625 -52.6875 C -31.953125 -53.25 -32.425781 -53.742188 -32.8125 -54.171875 C -33.207031 -54.609375 -33.40625 -54.828125 -33.40625 -54.828125 C -33.40625 -54.960938 -33.515625 -55.09375 -33.734375 -55.21875 C -33.816406 -55.3125 -33.9375 -55.421875 -34.09375 -55.546875 C -34.25 -55.679688 -34.367188 -55.789062 -34.453125 -55.875 L -35.359375 -56.859375 C -35.492188 -56.984375 -35.613281 -57.109375 -35.71875 -57.234375 C -35.832031 -57.367188 -35.863281 -57.457031 -35.8125 -57.5 C -35.8125 -57.59375 -35.878906 -57.660156 -36.015625 -57.703125 C -36.097656 -57.742188 -36.359375 -57.976562 -36.796875 -58.40625 C -37.234375 -58.84375 -37.710938 -59.34375 -38.234375 -59.90625 C -38.753906 -60.476562 -39.164062 -60.957031 -39.46875 -61.34375 C -39.632812 -61.5625 -39.78125 -61.734375 -39.90625 -61.859375 C -40.039062 -61.992188 -40.132812 -62.082031 -40.1875 -62.125 C -40.3125 -62.21875 -40.375 -62.328125 -40.375 -62.453125 C -40.375 -62.585938 -40.332031 -62.675781 -40.25 -62.71875 C -40.15625 -62.757812 -39.910156 -62.582031 -39.515625 -62.1875 C -39.128906 -61.800781 -38.675781 -61.28125 -38.15625 -60.625 L -37.0625 -59.328125 C -36.019531 -58.160156 -35.5 -57.53125 -35.5 -57.4375 C -35.5 -57.351562 -35.390625 -57.269531 -35.171875 -57.1875 C -34.953125 -57.09375 -34.84375 -56.957031 -34.84375 -56.78125 C -34.84375 -56.613281 -34.773438 -56.550781 -34.640625 -56.59375 C -34.515625 -56.59375 -34.410156 -56.523438 -34.328125 -56.390625 C -34.234375 -56.222656 -34.078125 -56.019531 -33.859375 -55.78125 C -33.648438 -55.539062 -33.5 -55.421875 -33.40625 -55.421875 C -33.363281 -55.421875 -33.34375 -55.378906 -33.34375 -55.296875 C -33.425781 -55.160156 -33.234375 -54.941406 -32.765625 -54.640625 C -32.285156 -54.296875 -31.757812 -53.816406 -31.1875 -53.203125 L -27.671875 -49.4375 L -27.03125 -48.78125 C -26.726562 -48.476562 -26.359375 -48.078125 -25.921875 -47.578125 C -25.484375 -47.078125 -25.242188 -46.757812 -25.203125 -46.625 C -25.160156 -46.457031 -25.03125 -46.328125 -24.8125 -46.234375 C -24.632812 -46.191406 -24.460938 -46.082031 -24.296875 -45.90625 L -21.234375 -42.265625 C -21.140625 -42.179688 -21.09375 -42.070312 -21.09375 -41.9375 C -21.144531 -41.894531 -21.09375 -41.773438 -20.9375 -41.578125 C -20.78125 -41.390625 -20.660156 -41.296875 -20.578125 -41.296875 C -20.492188 -41.296875 -20.332031 -41.175781 -20.09375 -40.9375 C -19.851562 -40.695312 -19.625 -40.421875 -19.40625 -40.109375 C -19.101562 -39.679688 -18.671875 -39.117188 -18.109375 -38.421875 C -17.546875 -37.722656 -17.023438 -37.113281 -16.546875 -36.59375 L -11.265625 -30.34375 C -11.085938 -30.175781 -10.890625 -29.960938 -10.671875 -29.703125 C -10.460938 -29.441406 -10.289062 -29.222656 -10.15625 -29.046875 L -9.578125 -28.265625 L -8.53125 -27.09375 L -6.96875 -25.203125 L -5.796875 -23.703125 C -5.492188 -23.359375 -5.285156 -23.109375 -5.171875 -22.953125 C -5.066406 -22.804688 -4.816406 -22.425781 -4.421875 -21.8125 L -3.515625 -20.453125 C -3.390625 -20.273438 -3.117188 -19.816406 -2.703125 -19.078125 C -2.285156 -18.335938 -1.835938 -17.488281 -1.359375 -16.53125 C -0.890625 -15.582031 -0.476562 -14.726562 -0.125 -13.96875 C 0.21875 -13.207031 0.410156 -12.71875 0.453125 -12.5 C 0.453125 -12.375 0.484375 -12.210938 0.546875 -12.015625 C 0.617188 -11.816406 0.695312 -11.65625 0.78125 -11.53125 C 1.175781 -10.613281 1.4375 -9.734375 1.5625 -8.890625 C 1.695312 -8.046875 1.675781 -7.425781 1.5 -7.03125 Z M 1.5 -7.03125 "/></g></g><g style="fill:#1f2122;fill-opacity:1;"><g transform="translate(137.165582, 202.008798)"><path style="stroke:none" d="M -17.65625 1.375 L -17.96875 1.5625 C -18.144531 1.601562 -18.316406 1.613281 -18.484375 1.59375 C -18.660156 1.570312 -18.816406 1.539062 -18.953125 1.5 C -19.253906 1.414062 -19.675781 1.097656 -20.21875 0.546875 C -20.757812 0.00390625 -21.160156 -0.375 -21.421875 -0.59375 C -21.597656 -0.800781 -21.644531 -0.953125 -21.5625 -1.046875 C -21.46875 -1.265625 -21.207031 -1.195312 -20.78125 -0.84375 C -20.425781 -0.539062 -19.96875 -0.148438 -19.40625 0.328125 C -18.84375 0.804688 -18.492188 1.023438 -18.359375 0.984375 C -18.191406 0.890625 -18.210938 0.644531 -18.421875 0.25 C -18.640625 -0.132812 -18.941406 -0.550781 -19.328125 -1 C -19.722656 -1.457031 -20.097656 -1.84375 -20.453125 -2.15625 L -20.640625 -2.28125 L -21.03125 -2.671875 L -21.234375 -2.796875 C -21.453125 -3.015625 -21.535156 -3.210938 -21.484375 -3.390625 C -21.398438 -3.648438 -21.171875 -3.640625 -20.796875 -3.359375 C -20.429688 -3.078125 -20.078125 -2.78125 -19.734375 -2.46875 C -19.078125 -1.945312 -18.617188 -1.773438 -18.359375 -1.953125 C -18.191406 -1.992188 -18.140625 -2.125 -18.203125 -2.34375 C -18.265625 -2.5625 -18.296875 -2.671875 -18.296875 -2.671875 C -18.390625 -3.148438 -18.628906 -3.863281 -19.015625 -4.8125 C -19.410156 -5.769531 -19.910156 -6.96875 -20.515625 -8.40625 L -20.578125 -8.53125 L -20.578125 -8.65625 L -20.515625 -8.796875 C -20.472656 -8.878906 -20.414062 -8.910156 -20.34375 -8.890625 C -20.28125 -8.867188 -20.226562 -8.816406 -20.1875 -8.734375 L -19.796875 -7.9375 L -18.5 -5.078125 C -18.238281 -4.472656 -18.03125 -3.921875 -17.875 -3.421875 C -17.726562 -2.921875 -17.65625 -2.671875 -17.65625 -2.671875 L -17.65625 -2.46875 C -17.519531 -1.90625 -17.582031 -1.554688 -17.84375 -1.421875 C -18.101562 -1.296875 -18.382812 -1.253906 -18.6875 -1.296875 L -18.953125 -1.296875 L -18.890625 -1.234375 L -18.5 -0.78125 C -18.363281 -0.601562 -18.1875 -0.332031 -17.96875 0.03125 C -17.757812 0.40625 -17.65625 0.722656 -17.65625 0.984375 Z M -17.65625 1.375 "/></g></g><g style="fill:#1f2122;fill-opacity:1;"><g transform="translate(137.165582, 193.348175)"><path style="stroke:none" d="M -17.453125 -3.84375 C -17.367188 -3.0625 -17.476562 -2.5 -17.78125 -2.15625 C -17.863281 -2.019531 -18.054688 -1.929688 -18.359375 -1.890625 C -18.671875 -1.847656 -18.910156 -1.867188 -19.078125 -1.953125 L -19.28125 -2.078125 L -19.34375 -2.078125 L -19.609375 -2.21875 L -19.609375 -2.15625 C -19.429688 -1.84375 -19.132812 -1.296875 -18.71875 -0.515625 C -18.3125 0.265625 -18 0.804688 -17.78125 1.109375 C -17.695312 1.410156 -17.65625 1.5625 -17.65625 1.5625 C -17.65625 1.695312 -17.707031 1.796875 -17.8125 1.859375 C -17.914062 1.921875 -18.015625 1.929688 -18.109375 1.890625 L -18.296875 1.890625 C -18.691406 1.492188 -19.148438 1.191406 -19.671875 0.984375 L -20.25 0.515625 C -20.8125 0.128906 -20.941406 -0.191406 -20.640625 -0.453125 C -20.472656 -0.585938 -20.257812 -0.585938 -20 -0.453125 L -19.28125 0 L -20.1875 -2.078125 C -20.269531 -2.210938 -20.34375 -2.351562 -20.40625 -2.5 C -20.476562 -2.65625 -20.535156 -2.753906 -20.578125 -2.796875 C -20.921875 -3.273438 -20.921875 -3.535156 -20.578125 -3.578125 C -20.234375 -3.617188 -19.910156 -3.507812 -19.609375 -3.25 C -19.171875 -2.820312 -18.820312 -2.648438 -18.5625 -2.734375 C -17.820312 -2.734375 -17.929688 -4.296875 -18.890625 -7.421875 C -18.972656 -7.765625 -19.132812 -8.226562 -19.375 -8.8125 C -19.613281 -9.40625 -19.820312 -9.941406 -20 -10.421875 C -20.300781 -11.117188 -20.492188 -11.609375 -20.578125 -11.890625 C -20.660156 -12.171875 -20.679688 -12.332031 -20.640625 -12.375 C -20.554688 -12.59375 -20.46875 -12.632812 -20.375 -12.5 C -20.289062 -12.375 -20.1875 -12.132812 -20.0625 -11.78125 C -19.96875 -11.519531 -19.898438 -11.335938 -19.859375 -11.234375 C -19.816406 -11.128906 -19.734375 -10.945312 -19.609375 -10.6875 L -19.40625 -10.296875 L -19.078125 -9.578125 L -18.6875 -8.65625 C -18.6875 -8.65625 -18.546875 -8.234375 -18.265625 -7.390625 C -17.984375 -6.546875 -17.78125 -5.816406 -17.65625 -5.203125 Z M -17.453125 -3.84375 "/></g></g><g style="fill:#1f2122;fill-opacity:1;"><g transform="translate(137.165582, 181.106078)"><path style="stroke:none" d="M -30.875 -29.375 C -30.65625 -29.757812 -30.394531 -29.648438 -30.09375 -29.046875 L -29.828125 -28.390625 C -29.785156 -28.347656 -29.828125 -28.265625 -29.953125 -28.140625 C -30.085938 -28.046875 -30.195312 -28.046875 -30.28125 -28.140625 C -30.414062 -28.222656 -30.492188 -28.242188 -30.515625 -28.203125 C -30.535156 -28.160156 -30.546875 -27.960938 -30.546875 -27.609375 C -30.585938 -27.441406 -30.617188 -27.226562 -30.640625 -26.96875 C -30.660156 -26.707031 -30.691406 -26.46875 -30.734375 -26.25 C -30.773438 -25.945312 -30.828125 -25.21875 -30.890625 -24.0625 C -30.960938 -22.914062 -31.019531 -21.59375 -31.0625 -20.09375 C -31.101562 -18.59375 -31.144531 -17.125 -31.1875 -15.6875 C -31.238281 -14.257812 -31.265625 -13.066406 -31.265625 -12.109375 L -31.265625 -11.859375 C -31.265625 -11.765625 -31.273438 -11.617188 -31.296875 -11.421875 C -31.316406 -11.234375 -31.304688 -11.007812 -31.265625 -10.75 L -31.0625 -10.421875 C -30.976562 -10.378906 -30.890625 -10.300781 -30.796875 -10.1875 C -30.710938 -10.082031 -30.609375 -9.988281 -30.484375 -9.90625 L -29.890625 -9.3125 C -29.628906 -9.132812 -29.378906 -8.914062 -29.140625 -8.65625 C -28.898438 -8.394531 -28.585938 -8.09375 -28.203125 -7.75 L -27.03125 -6.640625 C -26.675781 -6.378906 -26.394531 -6.140625 -26.1875 -5.921875 C -26.09375 -5.835938 -25.9375 -5.695312 -25.71875 -5.5 C -25.507812 -5.300781 -25.296875 -5.097656 -25.078125 -4.890625 C -24.421875 -4.316406 -23.90625 -3.878906 -23.53125 -3.578125 C -23.164062 -3.273438 -22.8125 -2.972656 -22.46875 -2.671875 L -21.625 -1.890625 L -20.90625 -1.296875 L -18.953125 0.453125 L -16.484375 2.609375 L -15.234375 3.640625 C -14.453125 4.335938 -13.519531 5.117188 -12.4375 5.984375 C -11.351562 6.859375 -10.300781 7.675781 -9.28125 8.4375 C -8.257812 9.195312 -7.445312 9.789062 -6.84375 10.21875 C -6.488281 10.4375 -6.082031 10.65625 -5.625 10.875 C -5.175781 11.09375 -4.863281 11.222656 -4.6875 11.265625 C -4.46875 11.265625 -4.359375 11.175781 -4.359375 11 C -4.316406 10.832031 -4.234375 10.789062 -4.109375 10.875 C -4.015625 10.914062 -3.96875 11.066406 -3.96875 11.328125 C -4.007812 11.503906 -4.1875 11.632812 -4.5 11.71875 C -4.757812 11.757812 -5.171875 11.675781 -5.734375 11.46875 C -5.953125 11.375 -6.144531 11.296875 -6.3125 11.234375 C -6.488281 11.171875 -6.554688 11.140625 -6.515625 11.140625 C -6.515625 11.097656 -6.578125 11.078125 -6.703125 11.078125 C -6.703125 11.078125 -6.710938 11.0625 -6.734375 11.03125 C -6.753906 11.007812 -6.789062 11 -6.84375 11 C -6.789062 10.914062 -6.851562 10.851562 -7.03125 10.8125 C -7.113281 10.769531 -7.222656 10.75 -7.359375 10.75 L -7.484375 10.75 C -7.441406 10.65625 -7.898438 10.265625 -8.859375 9.578125 L -12.4375 6.90625 L -14.453125 5.28125 C -14.890625 4.925781 -15.28125 4.609375 -15.625 4.328125 C -15.976562 4.046875 -16.175781 3.882812 -16.21875 3.84375 C -16.257812 3.757812 -16.363281 3.640625 -16.53125 3.484375 C -16.707031 3.328125 -16.90625 3.164062 -17.125 3 C -17.820312 2.476562 -18.289062 2.109375 -18.53125 1.890625 C -18.769531 1.671875 -18.890625 1.539062 -18.890625 1.5 C -18.890625 1.457031 -19 1.367188 -19.21875 1.234375 L -19.859375 0.71875 L -20.453125 0.203125 C -21.273438 -0.492188 -21.859375 -0.992188 -22.203125 -1.296875 C -22.554688 -1.609375 -22.816406 -1.847656 -22.984375 -2.015625 C -23.335938 -2.367188 -23.535156 -2.546875 -23.578125 -2.546875 C -23.535156 -2.546875 -23.71875 -2.71875 -24.125 -3.0625 C -24.539062 -3.40625 -24.75 -3.578125 -24.75 -3.578125 C -25.050781 -3.796875 -25.523438 -4.1875 -26.171875 -4.75 C -26.828125 -5.3125 -27.5 -5.90625 -28.1875 -6.53125 C -28.882812 -7.164062 -29.390625 -7.632812 -29.703125 -7.9375 L -30.546875 -8.734375 L -30.796875 -8.921875 L -30.9375 -9.125 C -31.019531 -9.164062 -31.082031 -9.207031 -31.125 -9.25 C -31.164062 -9.289062 -31.210938 -9.332031 -31.265625 -9.375 C -31.265625 -8.6875 -31.265625 -7.882812 -31.265625 -6.96875 C -31.265625 -6.050781 -31.238281 -5.441406 -31.1875 -5.140625 L -31.0625 -3 L -31 -1.234375 L -30.875 0.390625 C -30.820312 1.171875 -30.765625 1.894531 -30.703125 2.5625 C -30.640625 3.238281 -30.585938 3.625 -30.546875 3.71875 C -30.453125 4.144531 -30.382812 4.617188 -30.34375 5.140625 C -30.300781 5.660156 -30.300781 5.941406 -30.34375 5.984375 C -30.5625 6.203125 -30.757812 6.007812 -30.9375 5.40625 C -30.976562 5.226562 -31.03125 4.820312 -31.09375 4.1875 C -31.15625 3.5625 -31.21875 2.898438 -31.28125 2.203125 C -31.351562 1.515625 -31.390625 1 -31.390625 0.65625 L -31.515625 -0.78125 L -31.71875 -9.96875 L -31.96875 -10.21875 L -32.5625 -10.75 L -32.765625 -10.9375 C -32.847656 -11.03125 -33.03125 -11.238281 -33.3125 -11.5625 C -33.59375 -11.882812 -33.882812 -12.195312 -34.1875 -12.5 C -34.488281 -12.800781 -34.664062 -12.976562 -34.71875 -13.03125 C -34.800781 -13.070312 -35.082031 -13.394531 -35.5625 -14 L -36.078125 -14.59375 C -36.160156 -14.632812 -36.3125 -14.796875 -36.53125 -15.078125 C -36.75 -15.359375 -36.859375 -15.519531 -36.859375 -15.5625 C -36.859375 -15.695312 -36.796875 -15.785156 -36.671875 -15.828125 C -36.492188 -15.910156 -36.335938 -15.890625 -36.203125 -15.765625 L -35.890625 -15.5 L -35.359375 -14.84375 C -35.191406 -14.625 -34.929688 -14.332031 -34.578125 -13.96875 C -34.234375 -13.601562 -33.972656 -13.351562 -33.796875 -13.21875 C -33.492188 -12.957031 -33.234375 -12.695312 -33.015625 -12.4375 C -32.847656 -12.257812 -32.628906 -12.039062 -32.359375 -11.78125 C -32.097656 -11.519531 -31.90625 -11.347656 -31.78125 -11.265625 L -31.78125 -12.5 L -31.71875 -14.328125 C -31.71875 -14.628906 -31.691406 -15.390625 -31.640625 -16.609375 C -31.597656 -17.828125 -31.546875 -19.171875 -31.484375 -20.640625 C -31.421875 -22.117188 -31.367188 -23.460938 -31.328125 -24.671875 C -31.285156 -25.890625 -31.238281 -26.675781 -31.1875 -27.03125 C -31.144531 -27.769531 -31.101562 -28.300781 -31.0625 -28.625 C -31.019531 -28.945312 -30.957031 -29.195312 -30.875 -29.375 Z M -30.875 -29.375 "/></g></g><g style="fill:#1f2122;fill-opacity:1;"><g transform="translate(137.165582, 175.571095)"><path style="stroke:none" d="M -17.78125 -1.4375 C -17.78125 -1.21875 -17.890625 -1.039062 -18.109375 -0.90625 C -18.328125 -0.738281 -18.566406 -0.695312 -18.828125 -0.78125 C -19.085938 -0.78125 -19.300781 -0.847656 -19.46875 -0.984375 L -19.921875 -1.171875 C -19.972656 -1.171875 -19.898438 -1.007812 -19.703125 -0.6875 C -19.503906 -0.363281 -19.296875 -0.0664062 -19.078125 0.203125 C -18.910156 0.460938 -18.695312 0.835938 -18.4375 1.328125 C -18.175781 1.828125 -18.046875 2.164062 -18.046875 2.34375 C -18.046875 2.738281 -18.175781 2.9375 -18.4375 2.9375 C -18.5625 2.9375 -18.753906 2.78125 -19.015625 2.46875 C -19.359375 2.082031 -19.703125 1.609375 -20.046875 1.046875 C -20.398438 0.484375 -20.707031 -0.0351562 -20.96875 -0.515625 C -21.269531 -1.085938 -21.441406 -1.445312 -21.484375 -1.59375 C -21.535156 -1.75 -21.492188 -1.847656 -21.359375 -1.890625 C -21.273438 -1.890625 -21.234375 -2 -21.234375 -2.21875 C -21.234375 -2.601562 -21.09375 -2.707031 -20.8125 -2.53125 C -20.53125 -2.363281 -20.300781 -2.210938 -20.125 -2.078125 C -19.945312 -1.910156 -19.695312 -1.75 -19.375 -1.59375 C -19.050781 -1.445312 -18.738281 -1.4375 -18.4375 -1.5625 C -18.300781 -1.601562 -18.265625 -1.765625 -18.328125 -2.046875 C -18.398438 -2.328125 -18.4375 -2.46875 -18.4375 -2.46875 C -18.519531 -2.90625 -18.753906 -3.597656 -19.140625 -4.546875 C -19.535156 -5.503906 -20.035156 -6.703125 -20.640625 -8.140625 L -20.703125 -8.265625 L -20.703125 -8.46875 L -20.640625 -8.53125 C -20.597656 -8.613281 -20.546875 -8.65625 -20.484375 -8.65625 C -20.421875 -8.65625 -20.363281 -8.613281 -20.3125 -8.53125 L -18.625 -4.8125 C -18.320312 -4.207031 -18.101562 -3.65625 -17.96875 -3.15625 C -17.84375 -2.65625 -17.78125 -2.40625 -17.78125 -2.40625 L -17.78125 -2.21875 C -17.738281 -1.957031 -17.738281 -1.695312 -17.78125 -1.4375 Z M -18.625 2.21875 L -18.75 1.828125 C -18.882812 1.566406 -19.082031 1.21875 -19.34375 0.78125 C -19.601562 0.34375 -19.753906 0.101562 -19.796875 0.0625 C -19.972656 -0.113281 -20.171875 -0.414062 -20.390625 -0.84375 C -20.472656 -1.101562 -20.554688 -1.234375 -20.640625 -1.234375 C -20.734375 -1.234375 -20.765625 -1.191406 -20.734375 -1.109375 C -20.710938 -1.023438 -20.597656 -0.804688 -20.390625 -0.453125 C -20.210938 -0.015625 -19.972656 0.414062 -19.671875 0.84375 C -19.367188 1.28125 -19.109375 1.609375 -18.890625 1.828125 Z M -18.625 2.21875 "/></g></g><g style="fill:#1f2122;fill-opacity:1;"><g transform="translate(137.165582, 167.236055)"><path style="stroke:none" d="M 7.75 28.390625 C 7.613281 28.566406 7.441406 28.65625 7.234375 28.65625 C 6.835938 28.613281 6.160156 28.242188 5.203125 27.546875 C 4.898438 27.285156 4.476562 26.894531 3.9375 26.375 C 3.394531 25.851562 2.882812 25.351562 2.40625 24.875 C 1.925781 24.394531 1.6875 24.132812 1.6875 24.09375 C 1.6875 24.050781 1.675781 24.03125 1.65625 24.03125 C 1.632812 24.03125 1.625 24.03125 1.625 24.03125 C 1.539062 24.03125 1.5 23.988281 1.5 23.90625 C 1.5 23.851562 1.367188 23.695312 1.109375 23.4375 L 0.515625 22.734375 L -0.515625 21.484375 L -1.765625 19.921875 L -2.671875 18.625 C -2.847656 18.40625 -3.140625 17.96875 -3.546875 17.3125 C -3.960938 16.664062 -4.191406 16.300781 -4.234375 16.21875 L -5.078125 14.78125 C -5.335938 14.300781 -5.648438 13.710938 -6.015625 13.015625 C -6.390625 12.328125 -6.640625 11.832031 -6.765625 11.53125 L -7.421875 10.09375 L -8.34375 8.140625 C -8.550781 7.578125 -8.707031 7.21875 -8.8125 7.0625 C -8.925781 6.914062 -9.003906 6.84375 -9.046875 6.84375 L -9.125 6.765625 C -9.070312 6.722656 -9.113281 6.640625 -9.25 6.515625 C -9.375 6.421875 -9.523438 6.285156 -9.703125 6.109375 C -9.878906 5.941406 -10.117188 5.707031 -10.421875 5.40625 C -10.765625 5.0625 -10.984375 4.890625 -11.078125 4.890625 C -11.078125 4.890625 -11.085938 4.875 -11.109375 4.84375 C -11.128906 4.820312 -11.140625 4.789062 -11.140625 4.75 C -11.140625 4.625 -11.203125 4.539062 -11.328125 4.5 L -16.21875 0.203125 L -17.515625 -0.78125 L -18.5625 -1.5 L -18.890625 -1.6875 L -19.140625 -1.828125 L -19.078125 -1.296875 C -18.992188 -0.867188 -19.101562 -0.632812 -19.40625 -0.59375 C -19.582031 -0.59375 -19.703125 -0.632812 -19.765625 -0.71875 C -19.828125 -0.800781 -19.988281 -1.082031 -20.25 -1.5625 L -21.234375 -3.1875 L -21.09375 -2.671875 C -20.925781 -1.847656 -20.742188 -1.25 -20.546875 -0.875 C -20.347656 -0.507812 -20.207031 -0.21875 -20.125 0 C -20.082031 0.175781 -20.082031 0.265625 -20.125 0.265625 C -20.164062 0.265625 -20.207031 0.285156 -20.25 0.328125 C -20.425781 0.503906 -20.644531 0.234375 -20.90625 -0.484375 C -21.164062 -1.203125 -21.578125 -2.300781 -22.140625 -3.78125 C -22.441406 -4.6875 -22.59375 -5.226562 -22.59375 -5.40625 C -22.632812 -5.664062 -22.59375 -5.835938 -22.46875 -5.921875 C -22.164062 -6.097656 -21.882812 -5.90625 -21.625 -5.34375 C -21.445312 -4.90625 -21.316406 -4.644531 -21.234375 -4.5625 C -21.191406 -4.519531 -21.132812 -4.421875 -21.0625 -4.265625 C -21 -4.109375 -20.925781 -3.945312 -20.84375 -3.78125 L -20.578125 -3.1875 L -20.3125 -2.9375 C -20.1875 -2.757812 -20.035156 -2.710938 -19.859375 -2.796875 C -19.773438 -2.890625 -19.5625 -2.867188 -19.21875 -2.734375 C -18.90625 -2.609375 -18.585938 -2.4375 -18.265625 -2.21875 C -17.941406 -2 -17.476562 -1.648438 -16.875 -1.171875 C -16.300781 -0.734375 -15.566406 -0.148438 -14.671875 0.578125 C -13.785156 1.316406 -13.191406 1.84375 -12.890625 2.15625 L -11.859375 3.0625 C -11.460938 3.40625 -11.15625 3.675781 -10.9375 3.875 C -10.71875 4.070312 -10.546875 4.28125 -10.421875 4.5 C -10.242188 4.664062 -10.113281 4.738281 -10.03125 4.71875 C -9.945312 4.695312 -9.925781 4.597656 -9.96875 4.421875 L -10.09375 3.78125 C -10.132812 3.476562 -10.21875 2.976562 -10.34375 2.28125 C -10.476562 1.582031 -10.566406 1.234375 -10.609375 1.234375 C -10.703125 1.148438 -10.75 1 -10.75 0.78125 C -10.75 0.695312 -10.769531 0.566406 -10.8125 0.390625 C -10.851562 0.210938 -10.894531 0.0625 -10.9375 -0.0625 C -11.03125 -0.320312 -11.117188 -0.625 -11.203125 -0.96875 C -11.285156 -1.320312 -11.375 -1.78125 -11.46875 -2.34375 C -11.507812 -2.5625 -11.5625 -2.84375 -11.625 -3.1875 C -11.6875 -3.539062 -11.738281 -3.847656 -11.78125 -4.109375 C -11.914062 -4.628906 -12.054688 -5.34375 -12.203125 -6.25 C -12.359375 -7.164062 -12.457031 -7.773438 -12.5 -8.078125 L -12.640625 -8.859375 C -12.722656 -9.242188 -12.773438 -9.695312 -12.796875 -10.21875 C -12.816406 -10.738281 -12.804688 -11.046875 -12.765625 -11.140625 C -12.679688 -11.359375 -12.570312 -11.488281 -12.4375 -11.53125 C -12.21875 -11.613281 -12.023438 -11.59375 -11.859375 -11.46875 C -11.460938 -11.15625 -11.4375 -10.894531 -11.78125 -10.6875 C -11.914062 -10.632812 -12.003906 -10.347656 -12.046875 -9.828125 C -12.046875 -9.660156 -12.046875 -9.445312 -12.046875 -9.1875 C -12.046875 -8.925781 -12.023438 -8.707031 -11.984375 -8.53125 L -11.390625 -4.6875 L -11.140625 -3.25 L -10.9375 -2.015625 C -10.894531 -1.628906 -10.851562 -1.347656 -10.8125 -1.171875 C -10.769531 -0.992188 -10.726562 -0.863281 -10.6875 -0.78125 L -10.15625 1.375 L -9.90625 2.34375 C -9.8125 2.601562 -9.765625 2.863281 -9.765625 3.125 C -9.765625 3.382812 -9.722656 3.554688 -9.640625 3.640625 L -8.859375 5.734375 C -8.640625 6.253906 -8.269531 6.726562 -7.75 7.15625 L -6.84375 8.140625 L -4.75 10.484375 C -4.53125 10.660156 -4.078125 11.179688 -3.390625 12.046875 L -2.546875 13.09375 L -0.71875 15.296875 L 0.203125 16.484375 C 0.367188 16.742188 0.523438 16.957031 0.671875 17.125 C 0.828125 17.300781 0.90625 17.410156 0.90625 17.453125 L 1.5625 18.359375 L 2.015625 18.953125 C 2.316406 19.335938 2.46875 19.578125 2.46875 19.671875 C 2.46875 19.671875 2.476562 19.679688 2.5 19.703125 C 2.53125 19.722656 2.566406 19.734375 2.609375 19.734375 C 2.648438 19.773438 2.84375 20.007812 3.1875 20.4375 C 3.539062 20.875 3.78125 21.203125 3.90625 21.421875 C 3.945312 21.515625 4.039062 21.65625 4.1875 21.84375 C 4.34375 22.039062 4.488281 22.25 4.625 22.46875 C 5.007812 22.945312 5.203125 23.226562 5.203125 23.3125 C 5.203125 23.351562 5.25 23.421875 5.34375 23.515625 C 5.425781 23.515625 5.597656 23.75 5.859375 24.21875 L 6.84375 25.65625 C 7.1875 26.21875 7.410156 26.609375 7.515625 26.828125 C 7.628906 27.046875 7.707031 27.304688 7.75 27.609375 C 7.832031 27.960938 7.832031 28.222656 7.75 28.390625 Z M 7.296875 27.671875 L 7.15625 27.15625 C 7.15625 27.070312 7.113281 26.984375 7.03125 26.890625 L 6.84375 26.578125 C 6.84375 26.484375 6.796875 26.378906 6.703125 26.265625 C 6.617188 26.160156 6.554688 26.066406 6.515625 25.984375 L 6.1875 25.59375 C 6.226562 25.550781 6.070312 25.289062 5.71875 24.8125 C 5.375 24.332031 4.988281 23.8125 4.5625 23.25 L 3.90625 22.34375 C 3.820312 22.207031 3.671875 22 3.453125 21.71875 C 3.234375 21.4375 3.035156 21.1875 2.859375 20.96875 C 2.171875 20.101562 1.828125 19.625 1.828125 19.53125 C 1.828125 19.488281 1.738281 19.382812 1.5625 19.21875 L 1.296875 19.015625 C 1.296875 19.015625 1.234375 18.90625 1.109375 18.6875 C 1.023438 18.601562 0.9375 18.492188 0.84375 18.359375 C 0.757812 18.234375 0.695312 18.148438 0.65625 18.109375 C 0.5625 18.015625 0.460938 17.878906 0.359375 17.703125 C 0.253906 17.535156 0.132812 17.363281 0 17.1875 L -0.453125 16.609375 L -1.4375 15.234375 L -2.796875 13.671875 C -3.148438 13.242188 -3.441406 12.882812 -3.671875 12.59375 C -3.910156 12.3125 -4.03125 12.148438 -4.03125 12.109375 C -4.03125 12.023438 -4.097656 11.960938 -4.234375 11.921875 C -4.273438 11.878906 -4.335938 11.8125 -4.421875 11.71875 C -4.515625 11.632812 -4.582031 11.550781 -4.625 11.46875 L -7.15625 8.59375 L -7.875 7.9375 C -8.007812 7.8125 -8.078125 7.75 -8.078125 7.75 C -8.078125 7.75 -8.03125 7.859375 -7.9375 8.078125 L -7.15625 9.765625 C -7.15625 9.898438 -7.09375 10.078125 -6.96875 10.296875 L -6.765625 10.6875 C -6.722656 10.769531 -6.570312 11.0625 -6.3125 11.5625 C -6.050781 12.0625 -5.898438 12.351562 -5.859375 12.4375 L -5.078125 13.875 C -4.472656 14.957031 -4.0625 15.679688 -3.84375 16.046875 C -3.625 16.421875 -3.472656 16.671875 -3.390625 16.796875 L -2.796875 17.71875 L -2.28125 18.5 L -1.828125 19.078125 C -1.523438 19.472656 -1.175781 19.921875 -0.78125 20.421875 C -0.394531 20.921875 -0.15625 21.210938 -0.0625 21.296875 C 0.0195312 21.296875 0.0625 21.359375 0.0625 21.484375 C 0.0625 21.535156 0.191406 21.691406 0.453125 21.953125 C 0.671875 22.160156 0.867188 22.394531 1.046875 22.65625 L 1.5625 23.3125 L 2.796875 24.546875 L 4.75 26.4375 L 5.46875 27.03125 L 6.0625 27.484375 C 7.101562 28.222656 7.515625 28.285156 7.296875 27.671875 Z M 7.296875 27.671875 "/></g></g><g style="fill:#1f2122;fill-opacity:1;"><g transform="translate(137.165582, 157.598658)"><path style="stroke:none" d="M -22.40625 -2.734375 C -22.363281 -2.609375 -22.40625 -2.476562 -22.53125 -2.34375 C -22.664062 -2.21875 -22.753906 -2.195312 -22.796875 -2.28125 C -22.878906 -2.363281 -23.007812 -2.40625 -23.1875 -2.40625 C -23.613281 -2.5 -23.722656 -2.695312 -23.515625 -3 C -23.378906 -3.125 -23.269531 -3.1875 -23.1875 -3.1875 C -23.050781 -3.226562 -22.894531 -3.195312 -22.71875 -3.09375 C -22.550781 -2.988281 -22.445312 -2.867188 -22.40625 -2.734375 Z M -17.71875 0.984375 C -17.675781 1.628906 -17.847656 1.953125 -18.234375 1.953125 L -18.4375 1.953125 C -19 1.953125 -19.753906 1.390625 -20.703125 0.265625 C -21.097656 -0.304688 -21.253906 -0.675781 -21.171875 -0.84375 C -21.035156 -1.144531 -20.664062 -0.929688 -20.0625 -0.203125 L -19.140625 0.90625 C -18.929688 1.082031 -18.671875 1.171875 -18.359375 1.171875 C -18.316406 1.046875 -18.316406 0.882812 -18.359375 0.6875 C -18.410156 0.488281 -18.4375 0.390625 -18.4375 0.390625 C -18.519531 -0.0859375 -18.753906 -0.800781 -19.140625 -1.75 C -19.535156 -2.707031 -20.035156 -3.90625 -20.640625 -5.34375 L -20.703125 -5.46875 L -20.703125 -5.59375 L -20.640625 -5.734375 C -20.554688 -5.953125 -20.425781 -5.929688 -20.25 -5.671875 L -19.921875 -4.890625 L -18.625 -2.015625 C -18.40625 -1.492188 -18.207031 -0.953125 -18.03125 -0.390625 C -17.863281 0.171875 -17.757812 0.628906 -17.71875 0.984375 Z M -17.71875 0.984375 "/></g></g><g style="fill:#1f2122;fill-opacity:1;"><g transform="translate(137.165582, 152.128782)"><path style="stroke:none" d="M -17.515625 1.765625 C -17.347656 1.929688 -17.285156 2.125 -17.328125 2.34375 C -17.367188 2.5625 -17.519531 2.648438 -17.78125 2.609375 C -17.863281 2.566406 -18.082031 2.414062 -18.4375 2.15625 L -19.140625 1.5625 C -19.492188 1.300781 -19.953125 0.875 -20.515625 0.28125 C -21.078125 -0.300781 -21.445312 -0.742188 -21.625 -1.046875 C -21.75 -1.265625 -21.789062 -1.457031 -21.75 -1.625 C -21.625 -2.019531 -21.253906 -1.890625 -20.640625 -1.234375 C -20.421875 -0.972656 -20.257812 -0.800781 -20.15625 -0.71875 C -20.050781 -0.632812 -20.019531 -0.632812 -20.0625 -0.71875 L -20.3125 -1.296875 C -20.40625 -1.472656 -20.570312 -1.8125 -20.8125 -2.3125 C -21.050781 -2.8125 -21.191406 -3.082031 -21.234375 -3.125 C -21.398438 -3.519531 -21.3125 -3.738281 -20.96875 -3.78125 C -20.789062 -3.820312 -20.703125 -3.90625 -20.703125 -4.03125 C -20.703125 -4.25 -20.820312 -4.609375 -21.0625 -5.109375 C -21.300781 -5.609375 -21.507812 -6.007812 -21.6875 -6.3125 C -21.8125 -6.53125 -21.875 -6.679688 -21.875 -6.765625 C -21.875 -6.765625 -21.960938 -6.941406 -22.140625 -7.296875 C -22.484375 -7.722656 -22.523438 -8.003906 -22.265625 -8.140625 C -22.097656 -8.273438 -21.835938 -8.164062 -21.484375 -7.8125 C -21.359375 -7.632812 -21.296875 -7.460938 -21.296875 -7.296875 C -21.296875 -7.078125 -21.253906 -6.878906 -21.171875 -6.703125 L -20.84375 -5.984375 L -20.3125 -4.953125 C -20.007812 -4.078125 -19.945312 -3.46875 -20.125 -3.125 C -20.25 -2.945312 -20.269531 -2.726562 -20.1875 -2.46875 L -19.796875 -1.765625 C -19.492188 -1.066406 -19.265625 -0.585938 -19.109375 -0.328125 C -18.960938 -0.0664062 -18.820312 0.128906 -18.6875 0.265625 L -18.171875 0.984375 C -18.085938 1.109375 -17.976562 1.242188 -17.84375 1.390625 C -17.71875 1.546875 -17.609375 1.671875 -17.515625 1.765625 Z M -17.515625 1.765625 "/></g></g></g></svg>